<svg xmlns="http://www.w3.org/2000/svg" viewBox="0 0 20 20" fill="currentColor" aria-hidden="true"><path fill="currentColor" d="M9.212 14.091C9.46 14.341 10.083 14.138 9.751 13.264C9.458 12.489 9.884 12.15 9.884 12.15C9.683 12.217 8.651 13.534 9.212 14.091M10.015 13.288C10.265 13.537 10.885 13.333 10.556 12.461C10.262 11.685 10.689 11.347 10.689 11.347C10.483 11.415 9.458 12.73 10.015 13.288M12.204 11.71C12.01 11.755 10.386 12.413 10.974 13.005C11.567 13.596 12.204 11.71 12.204 11.71M8.2 15.297L7.54 16.104C7.466 16.181 7.656 16.5 7.813 16.342L8.59 15.686C8.657 15.619 8.511 15.592 8.403 15.486C8.296 15.377 8.267 15.229 8.2 15.297M11.441 13.345C10.566 13.017 10.365 13.638 10.613 13.887C11.171 14.445 12.486 13.417 12.554 13.215C12.554 13.215 12.216 13.642 11.441 13.345M17.5 6.238L10.01 2.515L10.007 2.506L10 2.51L9.993 2.506L9.99 2.515L2.5 6.238L3.124 7.494L10 4.076L16.876 7.494L17.5 6.238M7.633 9.765L12.367 9.765L13.68 8.541C13.68 8.541 13.027 7.626 11.948 7.509C10.895 7.392 10.527 8.036 10.001 8.063C9.473 8.036 9.107 7.392 8.052 7.509C6.975 7.626 6.321 8.541 6.321 8.541L7.633 9.765M12.721 10.552L7.28 10.552C7.28 10.552 4.665 12.608 5.524 16.399C5.524 16.399 5.81 17.494 7.124 17.494L12.878 17.494C14.191 17.494 14.477 16.399 14.477 16.399C15.335 12.608 12.721 10.552 12.721 10.552M20 4L20 16C20 18.2 18.2 20 16 20L4 20C1.8 20 0 18.2 0 16L0 4C0 1.8 1.8 0 4 0L16 0C18.2 0 20 1.8 20 4M9.81 14.976C8.937 14.648 8.733 15.27 8.983 15.52C9.541 16.076 10.856 15.048 10.923 14.846C10.923 14.846 10.584 15.271 9.81 14.976M8.925 14.092C8.631 13.316 9.058 12.979 9.058 12.979C8.853 13.046 7.824 14.362 8.384 14.919C8.631 15.17 9.254 14.965 8.925 14.092M11.752 14.019C11.685 14.219 10.367 15.25 9.81 14.692C9.559 14.443 9.765 13.819 10.637 14.148C11.413 14.443 11.752 14.019 11.752 14.019"/></svg>