<svg xmlns="http://www.w3.org/2000/svg" viewBox="0 0 20 20" fill="currentColor" aria-hidden="true"><path fill="currentColor" d="M16.607 6.68L3.392 6.68C2.899 6.68 2.5 6.28 2.5 5.784C2.5 5.293 2.899 4.893 3.392 4.893L16.607 4.893C17.099 4.893 17.5 5.293 17.5 5.784C17.5 6.28 17.099 6.68 16.607 6.68M12.706 8.61C12.541 8.405 12.571 8.106 12.775 7.938C12.979 7.772 13.282 7.803 13.446 8.008L14.561 9.381L15.676 8.008C15.842 7.803 16.142 7.772 16.345 7.938C16.549 8.106 16.581 8.405 16.414 8.61L15.174 10.137L16.414 11.664C16.581 11.869 16.549 12.17 16.345 12.336C16.257 12.407 16.151 12.442 16.045 12.442C15.907 12.442 15.771 12.383 15.676 12.266L14.561 10.893L13.446 12.266C13.353 12.383 13.216 12.442 13.076 12.442C12.97 12.442 12.863 12.407 12.775 12.336C12.571 12.17 12.541 11.869 12.706 11.664L13.947 10.137L12.706 8.61M8.185 8.608C8.02 8.405 8.05 8.106 8.253 7.94C8.459 7.772 8.759 7.805 8.924 8.01L10.039 9.383L11.154 8.01C11.318 7.805 11.62 7.772 11.824 7.94C12.027 8.106 12.061 8.405 11.892 8.608L10.651 10.137L11.892 11.664C12.061 11.869 12.027 12.168 11.824 12.336C11.736 12.407 11.629 12.442 11.524 12.442C11.384 12.442 11.247 12.383 11.154 12.266L10.039 10.893L8.924 12.266C8.83 12.383 8.694 12.442 8.556 12.442C8.45 12.442 8.343 12.407 8.253 12.336C8.05 12.168 8.02 11.869 8.185 11.664L9.425 10.137L8.185 8.608M3.553 8.61C3.385 8.405 3.415 8.104 3.622 7.938C3.825 7.77 4.125 7.805 4.29 8.008L5.405 9.381L6.521 8.008C6.686 7.805 6.985 7.77 7.191 7.938C7.395 8.104 7.425 8.405 7.26 8.61L6.019 10.137L7.26 11.664C7.425 11.869 7.395 12.17 7.191 12.336C7.102 12.407 6.995 12.442 6.889 12.442C6.751 12.442 6.615 12.383 6.521 12.266L5.405 10.893L4.29 12.266C4.196 12.383 4.06 12.442 3.921 12.442C3.816 12.442 3.71 12.407 3.622 12.336C3.415 12.17 3.385 11.869 3.553 11.664L4.792 10.137L3.553 8.61M16.607 15.106L3.392 15.106C2.899 15.106 2.5 14.703 2.5 14.213C2.5 13.721 2.899 13.319 3.392 13.319L16.607 13.319C17.099 13.319 17.5 13.721 17.5 14.213C17.5 14.703 17.099 15.106 16.607 15.106M16 0L4 0C1.8 0 0 1.8 0 4L0 16C0 18.201 1.8 20 4 20L16 20C18.2 20 20 18.201 20 16L20 4C20 1.8 18.2 0 16 0"/></svg>