<svg xmlns="http://www.w3.org/2000/svg" viewBox="0 0 20 20" fill="currentColor" aria-hidden="true"><path fill="currentColor" d="M8.014 11.974H8.483V15.359H8.014ZM9.713 11.974H10.182V15.359H9.713ZM13.695 11.974C12.762 11.974 12.004 12.732 12.004 13.666C12.004 14.601 12.762 15.359 13.695 15.359C14.63 15.359 15.388 14.601 15.388 13.666C15.388 12.732 14.63 11.974 13.695 11.974M17.031 7.195L6.001 7.195L13.061 3.849C13.239 3.923 13.443 3.931 13.631 3.841C13.982 3.675 14.133 3.255 13.967 2.902C13.8 2.55 13.379 2.4 13.027 2.568C12.839 2.656 12.716 2.818 12.66 3.002L3.81 7.195L2.969 7.195L2.969 17.5L17.031 17.5L17.031 7.195M20 4L20 16C20 18.2 18.2 20 16 20L4 20C1.8 20 0 18.2 0 16L0 4C0 1.799 1.8 0 4 0L16 0C18.2 0 20 1.799 20 4M4.612 8.591H15.387V10.345H4.612ZM6.312 11.974H6.781V15.359H6.312ZM4.612 11.974H5.081V15.359H4.612Z"/></svg>